<svg data-name="Groupe 189" xmlns="http://www.w3.org/2000/svg" width="317" height="482"><defs><clipPath id="a"><path data-name="Rectangle 76" fill="none" d="M0 0h317v482H0z"/></clipPath><clipPath id="b"><path data-name="Rectangle 75" fill="none" d="M0 0h368v614H0z"/></clipPath><clipPath id="c"><path data-name="Rectangle 66" fill="none" d="M0 0h114.781v312.74H0z"/></clipPath><clipPath id="d"><path data-name="Rectangle 67" fill="none" d="M0 0h86.209v268.782H0z"/></clipPath><clipPath id="e"><path data-name="Rectangle 69" fill="none" d="M0 0h181.016v178.671H0z"/></clipPath><clipPath id="f"><path data-name="Rectangle 70" fill="none" d="M0 0h104.187v125.191H0z"/></clipPath><clipPath id="g"><path data-name="Rectangle 71" fill="none" d="M0 0h108.736v134.288H0z"/></clipPath><clipPath id="h"><path data-name="Rectangle 73" fill="none" d="M0 0h221.404v178.39H0z"/></clipPath><clipPath id="i"><path data-name="Rectangle 74" fill="none" d="M0 0h182.332v151.825H0z"/></clipPath></defs><g data-name="Groupe 188" clip-path="url(#a)"><g data-name="Groupe 187"><g data-name="Groupe 186" clip-path="url(#b)" transform="translate(0 -73)"><g data-name="Groupe 165"><g data-name="Groupe 164" clip-path="url(#c)" transform="translate(-15.567 100.25)"><g data-name="Groupe 163"><g data-name="Groupe 162" clip-path="url(#c)"><path data-name="Tracé 709" d="M111.792 0c-30.88 35.05 24.25 110.44-6.93 194.03 0 0-21.4 55.24-96.27 118.71C120.252 186.67 61.752 48.35 111.792 0" fill="#e65625"/><path data-name="Tracé 710" d="M111.791 0c-50.04 48.35 8.46 186.67-103.2 312.74-5.83-53.72-27.71-165.75 33.46-199.12.24-85.1 68.67-113.19 69.74-113.62" fill="#378d9b"/></g></g></g></g><path data-name="Tracé 711" d="M26.484 213.867c.238-85.767 69.753-113.625 69.753-113.625-30.9 35.046 24.239 110.44-6.944 194.036 0 0-21.395 55.239-96.273 118.709-5.83-53.72-27.704-165.749 33.464-199.12Z" fill="none" stroke="#0e183f" stroke-linecap="round" stroke-linejoin="round" stroke-width="2"/><path data-name="Tracé 712" d="M96.237 100.242C46.176 148.577 104.698 286.909-6.98 412.987" fill="none" stroke="#0e183f" stroke-linecap="round" stroke-linejoin="round" stroke-width="2"/><path data-name="Tracé 713" d="M74.606 152.371c-2.5 46.5 3.365 126.668-22.345 181.537l-23.2 28.622c45.548-83.047 39.393-173.271 45.548-210.159" fill="#0e183f"/><g data-name="Groupe 168" opacity=".2"><g data-name="Groupe 167"><g data-name="Groupe 166" clip-path="url(#d)" transform="translate(-10.921 144.205)"><path data-name="Tracé 714" d="M86.209 0c-7.728 16.677-5.259 34.422-11.751 51.036-5.646 14.452-18.3 25.065-18.3 41.827 0 6.115 1.3 12.284 1.3 18.341 0 20-21.87 33.325-29.035 53.247-4.473 12.437-.881 26.118-6.919 38.293-6.137 12.377-20.167 16.707-21.5 31.866l3.941 34.172c14.235-20.89 49.793-62.379 65.235-112.67S81.536 36.258 86.213 0" fill="#0e183f"/></g></g></g><path data-name="Tracé 715" d="M-46.694 515.729a10.506 10.506 0 0 1-8.879-14.7c32.509-74.06 84.911-141.677 123.146-185.358 41.346-47.237 74.575-76.645 75.969-77.873a10.5 10.5 0 0 1 13.886 15.753c-1.328 1.172-133.561 118.75-193.772 255.918a10.505 10.505 0 0 1-10.35 6.257" fill="#e57596"/><path data-name="Tracé 716" d="M-46.694 515.729a10.506 10.506 0 0 1-8.879-14.7c32.509-74.06 84.911-141.677 123.146-185.358 41.346-47.237 74.575-76.645 75.969-77.873a10.5 10.5 0 0 1 13.886 15.753c-1.328 1.172-133.561 118.75-193.772 255.918a10.505 10.505 0 0 1-10.35 6.26Z" fill="none" stroke="#0e183f" stroke-linecap="round" stroke-linejoin="round" stroke-width="2"/><path data-name="Tracé 717" d="M152.65 257.906s-14.391-13.3-30.035-.454l17.022-16.13Z" fill="#0e183f"/><path data-name="Tracé 718" d="M171.663 86.569a2.083 2.083 0 1 0 2.083 2.083 2.083 2.083 0 0 0-2.083-2.083" fill="#378c9a"/><path data-name="Tracé 719" d="M128.538 114.142a6.339 6.339 0 1 0 6.339 6.339 6.339 6.339 0 0 0-6.339-6.339" fill="#378c9a"/><g data-name="Groupe 172"><g data-name="Groupe 171" clip-path="url(#e)" transform="translate(130.154 97.592)"><g data-name="Groupe 170"><g data-name="Groupe 169" clip-path="url(#e)"><path data-name="Tracé 720" d="M155.09 77.398a30.172 30.172 0 0 1 10.75 56.05l-16.53 9.4a30.121 30.121 0 0 0-27.34-42.85 29.574 29.574 0 0 0 .89-4.12 30.169 30.169 0 0 0-25.61-34.13 28.581 28.581 0 0 0-4.21-.3 29.574 29.574 0 0 0 .89-4.12 30.19 30.19 0 0 0-36.6-33.68l15.12-15.58.18-.18a30.182 30.182 0 0 1 50.22 26.55 32.76 32.76 0 0 1-.89 4.12 28.447 28.447 0 0 1 4.2.3 30.176 30.176 0 0 1 25.62 34.13 32.759 32.759 0 0 1-.89 4.12 29.851 29.851 0 0 1 4.2.29" fill="#e57595"/><path data-name="Tracé 721" d="M126.18 100.288a30.217 30.217 0 0 1 23.13 42.56l-27.59 15.69.03-.22a30.169 30.169 0 0 0-25.61-34.13 31.605 31.605 0 0 0-4.21-.3 29.266 29.266 0 0 0 .89-4.12 30.169 30.169 0 0 0-25.61-34.13 31.724 31.724 0 0 0-4.21-.3 29.268 29.268 0 0 0 .89-4.12 30.169 30.169 0 0 0-25.61-34.13 30.767 30.767 0 0 0-3.41-.29l22.46-23.15a30.19 30.19 0 0 1 36.6 33.68 29.574 29.574 0 0 1-.89 4.12 28.581 28.581 0 0 1 4.21.3 30.169 30.169 0 0 1 25.61 34.13 29.574 29.574 0 0 1-.89 4.12 29.991 29.991 0 0 1 4.21.29" fill="#f49634"/><path data-name="Tracé 722" d="M96.14 124.188a30.169 30.169 0 0 1 25.61 34.13l-.03.22-19.93 11.34a68.271 68.271 0 0 1-83.21-106.29l16.29-16.79a30.767 30.767 0 0 1 3.41.29 30.169 30.169 0 0 1 25.61 34.13 29.268 29.268 0 0 1-.89 4.12 31.724 31.724 0 0 1 4.21.3 30.169 30.169 0 0 1 25.61 34.13 29.266 29.266 0 0 1-.89 4.12 31.605 31.605 0 0 1 4.21.3" fill="#e65625"/></g></g></g></g><path data-name="Tracé 723" d="M261.163 250.237s-7.915-35.083-37.907-29.866c11.235-18.659-8.408-42.8-27.986-43.3 7.319-26.883-22.3-40.868-22.3-40.868l-7.947 8.19c2.929-.031 32.28 3.842 28.4 36.461l-.379 1.268c.072.012.14.027.211.039-.037.262-.058.51-.1.775.111-.247.209-.49.314-.736 21.492 3.738 31.608 16.143 29.626 38.205-.4.072-.806.147-1.216.233 33.511 6.521 29.9 32.6 29.184 35.5Z" fill="#0e183f"/><path data-name="Tracé 724" d="M253.71 196.687c11.158-18.722-8.654-42.907-28.278-43.217 6.224-32.575-29.187-41.587-29.187-41.587l-8.76 9.354c10.667-2.045 36.4-.38 36.868 34.254l-.907 3.039c21.749 3.639 32.01 16.03 30.061 38.165-.449.021-.882.023-1.342.056.453.1.873.21 1.313.314v.038l.019-.034c32.43 7.65 30.386 32.4 25.9 42.4l11.033-5.969c.328-6.938-3.043-38.229-36.715-36.81" fill="#0e183f"/><g data-name="Groupe 175" opacity=".2"><g data-name="Groupe 174"><g data-name="Groupe 173" clip-path="url(#f)" transform="translate(166.472 129.495)"><path data-name="Tracé 725" d="M104.187 115.955a40.435 40.435 0 0 0-33.97-32.783c.1-1.142.158-2.3.158-3.463a40.419 40.419 0 0 0-30.681-39.222c.047-.8.077-1.6.077-2.406A40.419 40.419 0 0 0 12.89 0L0 13.478a31.186 31.186 0 0 1 26.133 39.167A31.187 31.187 0 0 1 55.84 90.374c.377-.013.754-.028 1.134-.028a31.192 31.192 0 0 1 31.193 31.193 31.678 31.678 0 0 1-.219 3.652Z" fill="#0e183f"/></g></g></g><g data-name="Groupe 178" opacity=".2"><g data-name="Groupe 177"><g data-name="Groupe 176" clip-path="url(#g)" transform="translate(191.942 103.23)"><path data-name="Tracé 726" d="M108.736 123.819c-3.063-17.006-17.624-34.95-34.83-37.42.1-1.143.158-2.3.158-3.463a40.42 40.42 0 0 0-30.681-39.223c.047-.8.078-1.6.078-2.4 0-17.572-14.446-35.744-30.109-41.308L0 13.014c15.359 1.945 32.563 17.1 32.563 32.99a44.2 44.2 0 0 1-1.307 9.8c16.861.421 30.716 12.529 30.716 29.491 0 2.25-1.333 6.944-1.786 9.058.377-.013 2.235.421 2.615.421 17.228 0 29.056 12.761 29.056 29.988 0 1.237.946 8.325.806 9.524Z" fill="#0e183f"/></g></g></g><path data-name="Tracé 727" d="M154.737 154.886c-5.166 12.053-8.055 21.543-8.055 34.622a52.283 52.283 0 0 0 2.506 16.275c7.05-25.307 29.125-24.076 29.125-2.2 0 12.992-5.234 29.678-5.234 36.036 0 5.525 1.964 10.82 4.551 15.645 1.567-7.263 5.328-14.82 10.887-16.358-4.474 10.707-.82 32.364 30.586 32.364a30.148 30.148 0 0 0 7.442-.861c-61.525 28.566-135.381-51.277-71.808-115.523" fill="#f49634"/><path data-name="Tracé 728" d="m202.6 105.657-53.869 55.52a68.273 68.273 0 0 0 83.215 106.29l64.053-36.428a30.163 30.163 0 0 0-14.958-56.339 30.483 30.483 0 0 0 .889-4.121 30.148 30.148 0 0 0-29.815-34.431 30.515 30.515 0 0 0 .889-4.121 30.175 30.175 0 0 0-50.214-26.546" fill="none" stroke="#0e183f" stroke-linecap="round" stroke-linejoin="round" stroke-width="2"/><path data-name="Tracé 729" d="M279.461 240.444a30.2 30.2 0 0 0-23.127-42.56 30.78 30.78 0 0 0-4.205-.3 30.147 30.147 0 0 0-28.93-38.548 30.186 30.186 0 0 0-35.714-37.8" fill="none" stroke="#0e183f" stroke-linecap="round" stroke-linejoin="round" stroke-width="2"/><path data-name="Tracé 730" d="m251.874 256.134.033-.224a30.148 30.148 0 0 0-29.819-34.428 30.485 30.485 0 0 0 .889-4.121 30.148 30.148 0 0 0-29.819-34.428 30.192 30.192 0 0 0-28.138-38.544" fill="none" stroke="#0e183f" stroke-linecap="round" stroke-linejoin="round" stroke-width="2"/><g data-name="Groupe 182"><g data-name="Groupe 181" clip-path="url(#h)" transform="translate(-58.088 370.3)"><g data-name="Groupe 180"><g data-name="Groupe 179" clip-path="url(#h)"><path data-name="Tracé 731" d="M221.396 0s2.046 59.843-61.252 79.3c0 0 10.817 71.8-81.1 95.1-26.612 6.754-78.706 2.875-78.706 2.875q2.475-8.727 5.442-17.416C64.18-10.33 198.18 56.952 221.396-.006" fill="#378d9b"/><path data-name="Tracé 732" d="M0 103.65C74.924-46.305 176.991 24.05 221.4.001 198.185 56.959 64.189-10.324 5.784 159.865q-2.967 8.684-5.442 17.416Z" fill="#e65625"/></g></g></g></g><path data-name="Tracé 733" d="M-57.751 547.577s52.1 3.879 78.707-2.868c91.92-23.31 81.1-95.1 81.1-95.1 63.3-19.47 61.251-79.309 61.251-79.309-44.4 24.054-146.469-46.307-221.393 103.654Z" fill="none" stroke="#0e183f" stroke-linecap="round" stroke-linejoin="round" stroke-width="2"/><path data-name="Tracé 734" d="M163.308 370.3C140.094 427.256 6.096 359.979-52.304 530.162q-3.183 9.276-5.781 18.6" fill="none" stroke="#0e183f" stroke-linecap="round" stroke-linejoin="round" stroke-width="2"/><path data-name="Tracé 735" d="M-57.864 518.441s12.5-43.29 49.788-73.658c32.63-26.572 81.306-43.4 121.026-46.09-77.131 12.171-146.519 52.741-171.035 150.074Z" fill="#0e183f"/><g data-name="Groupe 185" opacity=".2"><g data-name="Groupe 184"><g data-name="Groupe 183" clip-path="url(#i)" transform="translate(-57.751 396.669)"><path data-name="Tracé 736" d="M182.332 0c-61.851 17.868-34.895 26.222-57.4 41.429-12.522 8.461-30.428 8.789-40.372 21.248-8.828 11.061-7.7 27.7-17.5 37.654-13 13.2-46.582.933-46.582 49.879q0 .81.014 1.615l-20.489-.918S20.495 80.179 54.557 49.325C99.002 9.066 173.429 2.574 182.334 0" fill="#0e183f"/></g></g></g></g></g></g></svg>