<svg id="Groupe_130" data-name="Groupe 130" xmlns="http://www.w3.org/2000/svg" xmlns:xlink="http://www.w3.org/1999/xlink" width="300" height="623" viewBox="0 0 300 623">
  <defs>
    <clipPath id="clip-path">
      <rect id="Rectangle_56" data-name="Rectangle 56" width="300" height="623" fill="none"/>
    </clipPath>
  </defs>
  <g id="Groupe_129" data-name="Groupe 129" clip-path="url(#clip-path)">
    <path id="Tracé_601" data-name="Tracé 601" d="M119.2,470.2l.12-.01a76.448,76.448,0,0,0,1.747-12.229A95.823,95.823,0,0,1,119.2,470.2" fill="#e65625"/>
    <path id="Tracé_602" data-name="Tracé 602" d="M108.611,403.811a90.837,90.837,0,0,1,7.409,15.646,101.244,101.244,0,0,0-6.995-15.952c-.138.1-.276.206-.414.306" fill="#e65625"/>
    <path id="Tracé_603" data-name="Tracé 603" d="M82.759,411.006l-3.4,18.5L95.6,410.018a36.488,36.488,0,0,1-9.2,1.182c-1.2,0-2.419-.077-3.641-.194" fill="#e65625"/>
    <path id="Tracé_604" data-name="Tracé 604" d="M132.4,365.8c-5.2,17.657-13.173,29.752-22.427,36.992,6.172,8.128,17.041,26.294,18.888,55.078A213.314,213.314,0,0,0,136.8,399.5a221.487,221.487,0,0,0-3.3-37.8c-.234,1.092-.533,2.118-.841,3.136-.086.321-.165.635-.259.964" fill="#e65625"/>
    <path id="Tracé_605" data-name="Tracé 605" d="M34.689,359.685A140.493,140.493,0,0,1,30.8,325.5v-.1c0-66.291,27.791-131.381,27.8-197.671C58.583,80.753,42.479,34.4,2.1,34.4c-.7,0-1.4.022-2.1.055V76.406C15.11,82.9,27.2,99.882,27.2,131.1,27.2,179.658,7.353,261.671,0,326.573v38.4A90.453,90.453,0,0,1,30.8,359.6c1.3,0,2.6.031,3.889.085" fill="#e65625"/>
    <path id="Tracé_606" data-name="Tracé 606" d="M76.547,409.922,58.6,454.4l.921-1.1,17.22-43.318c-.065-.016-.129-.038-.194-.055" fill="#e65625"/>
    <path id="Tracé_607" data-name="Tracé 607" d="M58.6,127.729v.07c0,66.183-27.783,131.365-27.8,197.645v.056a140.484,140.484,0,0,0,3.89,34.185A89.981,89.981,0,0,1,88.5,380.3L76.548,409.922c.064.017.129.038.194.055L88.3,380.9l-5.541,30.106c1.222.117,2.439.2,3.641.2a36.535,36.535,0,0,0,9.2-1.183l9.6-11.518q1.8,2.59,3.411,5.311c.139-.1.276-.2.414-.306-1.031-1.894-2.124-3.8-3.325-5.706a45.594,45.594,0,0,1,4.273,4.993c9.254-7.241,17.231-19.335,22.427-36.993.094-.329.173-.643.259-.963.278-1.043.535-2.065.841-3.135-5.1-29-15.9-54.8-30.7-74.8a77.709,77.709,0,0,1-6.2-82c10.8-20.5,17.2-45.9,17.2-73.5C113.8,63.4,75,8.3,27.2,8.3A63.39,63.39,0,0,0,0,14.536v19.92c.7-.033,1.4-.055,2.1-.055,40.38,0,56.484,46.353,56.5,93.328" fill="#0e183f"/>
    <path id="Tracé_608" data-name="Tracé 608" d="M0,76.407V326.574c7.354-64.9,27.2-146.915,27.2-195.474C27.2,99.883,15.111,82.9,0,76.407" fill="#b24528"/>
    <path id="Tracé_609" data-name="Tracé 609" d="M171.5,480.3l-21.381,69.611,15.6-22.626Z" fill="#0e183f"/>
    <path id="Tracé_610" data-name="Tracé 610" d="M88.3,380.9,76.741,409.977l-17.22,43.318L79.355,429.5l3.4-18.5Z" fill="#0e183f"/>
    <path id="Tracé_611" data-name="Tracé 611" d="M105.7,397.8c1.2,1.909,2.293,3.811,3.325,5.706a101.2,101.2,0,0,1,6.995,15.952A90.748,90.748,0,0,1,121.4,450.3q0,3.858-.333,7.661a76.425,76.425,0,0,1-1.747,12.229c3.163-.294,6.421-.49,9.68-.49l.1,0c.1-4.131,0-8.066-.24-11.832-1.847-28.784-12.716-46.95-18.888-55.078A45.506,45.506,0,0,0,105.7,397.8" fill="#0e183f"/>
    <path id="Tracé_612" data-name="Tracé 612" d="M220.132,538.227a79.43,79.43,0,0,1,9.279,12.368A90.054,90.054,0,0,1,243.1,598.5c0,.058,0,.113,0,.171.158,3.977.083,7.3-.043,9.727l.044,4.2h-.376c-.015.131-.024.2-.024.2h-1.148c-.029.19-.049.3-.052.3h10c0-86.795-74.691-101.9-74.7-101.9a90.352,90.352,0,0,1,38.8,22.3q2.351,2.281,4.532,4.727" fill="#0e183f"/>
    <path id="Tracé_613" data-name="Tracé 613" d="M176.8,511.2Z" fill="#0e183f"/>
    <path id="Tracé_614" data-name="Tracé 614" d="M104.2,442.4C21.3,498.2,40.3,588.7,40.3,588.7c27.2-79,80.5-81.8,80.5-81.8-51.35,29.88-44.4,73.309-37.228,94.033,5.213-15.53,17.25-34.5,45.228-40.833,0,0-18.2,19.4-15.7,43.4,0,0,18-46.6,65.5-48,0,.1-45.246,16.547-39.724,57.1h31.472c37.909-8.9,15.752-55.5,15.752-55.5,19.7,7,30.8,34.3,30.8,34.3,14.4-46.8-29.4-74.9-29.4-74.9,14.123,5.435,24.71,13.087,32.632,21.727q-2.18-2.442-4.532-4.727a90.352,90.352,0,0,0-38.8-22.3l-11.086,16.085-15.6,22.626L149.3,551.1l13.3-42.7,8.8-28.2a90.223,90.223,0,0,0-42.3-10.5l-.1,0c-3.259,0-6.517.2-9.68.49l-.12.01a95.8,95.8,0,0,0,1.867-12.239q.327-3.8.333-7.661a90.536,90.536,0,0,0-12.789-46.489q-1.619-2.717-3.411-5.311l-9.6,11.518L79.355,429.5,59.521,453.3l-.921,1.1,17.947-44.478L88.5,380.3a89.985,89.985,0,0,0-53.811-20.615c-1.29-.054-2.586-.085-3.889-.085A90.478,90.478,0,0,0,0,364.969V451.54c21.39-24.185,41.8-34.24,41.8-34.24C20.359,434.7,7.521,457.093,0,479.644v74.333C30.451,469.947,104.2,442.4,104.2,442.4m38.7,44.9a7.1,7.1,0,1,1-7.1,7.1,7.1,7.1,0,0,1,7.1-7.1m-9.7,37a2.6,2.6,0,1,1-2.6,2.6,2.6,2.6,0,0,1,2.6-2.6M59,381.8a3.3,3.3,0,1,1-3.3,3.3,3.3,3.3,0,0,1,3.3-3.3M25.8,404.1a8.2,8.2,0,1,1,8.2-8.2,8.2,8.2,0,0,1-8.2,8.2" fill="#f49634"/>
    <path id="Tracé_615" data-name="Tracé 615" d="M243.1,598.5a90.058,90.058,0,0,0-13.688-47.9c10.451,17.136,13.2,35.724,13.687,48.076,0-.059,0-.113,0-.172" fill="#f49634"/>
    <path id="Tracé_616" data-name="Tracé 616" d="M243.1,612.6l-.043-4.2c-.116,2.223-.272,3.7-.332,4.2Z" fill="#f49634"/>
    <path id="Tracé_617" data-name="Tracé 617" d="M169.5,612.8Z" fill="#e65625"/>
    <path id="Tracé_618" data-name="Tracé 618" d="M242.725,612.6c.06-.507.217-1.979.332-4.2.126-2.426.2-5.749.042-9.726-.49-12.352-3.235-30.94-13.687-48.076a79.5,79.5,0,0,0-9.279-12.369c-7.923-8.64-18.509-16.292-32.633-21.727,0,0,43.8,28.1,29.4,74.9,0,0-11.1-27.3-30.8-34.3,0,0,22.157,46.6-15.752,55.5-.283.066-.558.138-.847.2h73.2s.01-.069.025-.2" fill="#e65625"/>
    <path id="Tracé_619" data-name="Tracé 619" d="M83.572,600.933C76.4,580.209,69.45,536.781,120.8,506.9c0,0-53.3,2.8-80.5,81.8,0,0-19-90.5,63.9-146.3,0,0-73.749,27.547-104.2,111.577V612.8H80.6a79.494,79.494,0,0,1,2.972-11.867" fill="#e65625"/>
    <path id="Tracé_620" data-name="Tracé 620" d="M41.8,417.3S21.39,427.355,0,451.54v28.1C7.521,457.093,20.359,434.7,41.8,417.3" fill="#e65625"/>
    <path id="Tracé_621" data-name="Tracé 621" d="M142.9,501.5a7.1,7.1,0,1,0-7.1-7.1,7.1,7.1,0,0,0,7.1,7.1" fill="#e65625"/>
    <path id="Tracé_622" data-name="Tracé 622" d="M133.2,529.5a2.6,2.6,0,1,0-2.6-2.6,2.6,2.6,0,0,0,2.6,2.6" fill="#e65625"/>
    <path id="Tracé_623" data-name="Tracé 623" d="M25.8,387.7a8.2,8.2,0,1,0,8.2,8.2,8.2,8.2,0,0,0-8.2-8.2" fill="#e65625"/>
    <path id="Tracé_624" data-name="Tracé 624" d="M59,388.4a3.3,3.3,0,1,0-3.3-3.3,3.3,3.3,0,0,0,3.3,3.3" fill="#e65625"/>
    <path id="Tracé_625" data-name="Tracé 625" d="M178.6,555.5c-47.5,1.4-65.5,48-65.5,48-2.5-24,15.7-43.4,15.7-43.4-27.978,6.33-40.015,25.3-45.228,40.833A79.494,79.494,0,0,0,80.6,612.8h58.3c-.009-.067-.015-.133-.024-.2-5.522-40.553,39.724-57,39.724-57.1" fill="#e65625"/>
  </g>
</svg>
