<svg xmlns="http://www.w3.org/2000/svg" width="91.997" height="28.206" viewBox="0 0 91.997 28.206">
  <path id="Soustraction_2" data-name="Soustraction 2" d="M57.338,28.206c-8.447,0-16.887-2.006-25.05-3.946l-.32-.076C23.6,22.191,15.692,20.31,7.9,20.31a39.245,39.245,0,0,0-7.9.752v-15A49.729,49.729,0,0,1,21.732,1.239a97.482,97.482,0,0,1,12.22,1.017,92.23,92.23,0,0,0,11.58.977A30.823,30.823,0,0,0,60.008,0c-1.321,4.138-3.324,6.779-6.489,8.563-2.917,1.644-6.619,2.5-11.933,3.609a17.018,17.018,0,0,1,3.487-.337c3.515,0,7.314.9,11.334,1.853l.084.02,1.028.243a63.313,63.313,0,0,0,14.653,2.113A38.53,38.53,0,0,0,92,10.485a57.248,57.248,0,0,1-8.407,8.555,42.012,42.012,0,0,1-8.613,5.448A40.707,40.707,0,0,1,57.338,28.206Z" fill="#f49534"/>
</svg>
