<svg xmlns="http://www.w3.org/2000/svg" width="91.997" height="28.206" viewBox="0 0 91.997 28.206">
  <path id="Soustraction_2" data-name="Soustraction 2" d="M57.338,0c-8.447,0-16.887,2.006-25.05,3.946l-.32.076C23.6,6.015,15.692,7.9,7.9,7.9A39.245,39.245,0,0,1,0,7.144v15a49.729,49.729,0,0,0,21.732,4.818,97.482,97.482,0,0,0,12.22-1.017,92.23,92.23,0,0,1,11.58-.977,30.823,30.823,0,0,1,14.475,3.234c-1.321-4.138-3.324-6.779-6.489-8.563C50.6,18,46.9,17.147,41.586,16.034a17.018,17.018,0,0,0,3.487.337c3.515,0,7.314-.9,11.334-1.853l.084-.02,1.028-.243a63.313,63.313,0,0,1,14.653-2.113A38.53,38.53,0,0,1,92,17.721a57.248,57.248,0,0,0-8.407-8.555,42.012,42.012,0,0,0-8.613-5.448A40.707,40.707,0,0,0,57.338,0Z" transform="translate(91.997 28.206) rotate(180)" fill="#f49534"/>
</svg>
